<svg xmlns="http://www.w3.org/2000/svg" width="820" height="960" viewBox="0 0 820 960">
  <rect width="820" height="960" fill="#dce8c4"/>
  <polygon id="mud_lake" points="141.2,222.2 144.8,221.8 144.7,208.6 136.0,197.6 132.3,193.4 126.9,191.0 118.6,179.3 120.9,173.5 113.3,153.6 109.7,151.1 106.1,143.0 103.7,140.7 93.4,135.7 96.2,149.4 89.1,160.9 89.4,165.7 87.4,168.6 89.3,178.3 103.8,191.4 117.4,199.2 127.0,209.1 132.3,217.8 138.6,216.4 134.9,219.0" fill="#4BA3D4" stroke="#2E7BAF" stroke-width="0.8" stroke-linejoin="round"/>
  <polygon id="west_arm" points="311.0,566.4 318.3,560.8 327.2,549.4 327.7,538.3 335.6,518.6 317.9,479.4 312.6,469.7 303.3,445.7 302.5,431.0 277.7,394.2 271.1,378.7 272.1,373.0 260.3,366.1 241.8,353.7 228.0,339.5 224.9,338.3 224.8,335.0 208.6,309.9 205.4,302.9 202.8,283.9 202.5,275.0 189.4,268.5 184.8,266.9 138.9,221.1 138.7,215.8 134.1,217.8 130.2,231.0 127.0,234.8 122.4,242.2 120.9,244.3 122.6,248.3 121.8,254.1 133.4,261.9 144.6,280.6 152.1,294.6 154.5,308.1 161.1,327.8 158.1,345.5 163.1,362.1 181.4,383.8 224.7,431.0 230.3,465.5 222.5,490.0 225.3,499.4 252.9,512.4 276.3,543.1 282.8,550.8 282.7,551.3 283.6,559.4 275.9,562.5 271.6,563.5 271.2,563.3" fill="#4BA3D4" stroke="#2E7BAF" stroke-width="0.8" stroke-linejoin="round"/>
  <polygon id="north_arm" points="540.9,436.4 539.4,436.1 553.8,439.4 536.9,441.2 531.1,442.7 521.0,448.1 523.1,451.4 521.9,453.4 511.3,445.9 504.9,446.1 502.3,447.8 494.2,452.1 490.1,465.6 491.4,480.1 501.4,497.1 514.1,504.7 511.8,520.2 512.8,526.8 518.7,545.1 536.0,555.3 542.3,567.4 546.8,574.4 539.3,581.0 534.7,597.1 530.8,609.4 534.9,630.8 539.5,634.7 544.7,638.3 549.7,640.4 546.0,643.3 544.1,648.1 558.9,641.0 569.4,651.6 567.1,641.6 563.9,640.3 568.3,639.8 570.3,637.7 567.3,639.1 577.0,635.6 580.0,619.2 584.8,614.1 584.9,596.8 598.8,583.2 596.7,566.2 603.3,552.6 598.7,532.0 573.1,522.9 559.4,510.8 561.9,497.5 553.5,487.3 563.2,449.2 561.6,447.4" fill="#4BA3D4" stroke="#2E7BAF" stroke-width="0.8" stroke-linejoin="round"/>
  <polygon id="the_foot" points="727.1,777.1 725.4,763.7 721.0,760.4 714.9,755.9 707.4,754.0 697.2,752.5 629.5,734.5 587.8,692.3 545.2,691.4 528.3,694.0 503.9,726.8 500.9,744.9 512.3,764.3 515.2,782.8 530.4,816.5 520.8,844.1 582.6,825.4 622.1,808.8 705.1,804.0 712.3,807.8 718.6,805.8 731.1,794.1 733.4,785.1 733.2,784.0 731.8,778.3 733.2,777.5 732.7,772.3 732.6,768.7 731.2,768.3 730.4,767.1 729.5,767.2 728.3,765.2" fill="#4BA3D4" stroke="#2E7BAF" stroke-width="0.8" stroke-linejoin="round"/>
  <polygon id="wildwood" points="311.0,566.4 304.0,569.0 295.3,572.1 301.1,572.2 307.0,570.9 312.8,571.7 317.8,574.3 320.7,578.6 319.3,575.6 326.7,612.3 344.0,621.3 344.4,640.9 351.1,650.6 371.4,646.6 382.7,658.0 401.2,673.4 407.3,669.8 433.7,715.9 377.7,764.9 305.6,702.3 271.5,671.8 263.5,659.8 270.0,619.8 267.3,606.2 230.0,571.8 224.6,560.7 239.5,542.1 251.5,543.4 254.8,550.1 253.9,551.5 254.0,551.7 259.5,556.9 266.6,561.5 271.2,563.3" fill="#4BA3D4" stroke="#2E7BAF" stroke-width="0.8" stroke-linejoin="round"/>
  <polygon id="channel" points="377.7,764.9 512.3,764.3 545.2,691.4 433.7,715.9" fill="#4BA3D4" stroke="#2E7BAF" stroke-width="0.8" stroke-linejoin="round"/>
  <polygon id="na_foot_connector" points="534.9,630.8 567.3,639.1 587.8,692.3 545.2,691.4" fill="#4BA3D4" stroke="#2E7BAF" stroke-width="0.8" stroke-linejoin="round"/>
  <text x="115.4" y="174.0" font-family="Georgia, serif" font-size="12" font-style="italic" fill="white" stroke="rgba(0,30,60,0.45)" stroke-width="3" paint-order="stroke" text-anchor="middle">Mud Lake</text>
  <text x="210.3" y="383.8" font-family="Georgia, serif" font-size="12" font-style="italic" fill="white" stroke="rgba(0,30,60,0.45)" stroke-width="3" paint-order="stroke" text-anchor="middle">West Arm</text>
  <text x="537.2" y="548.7" font-family="Georgia, serif" font-size="12" font-style="italic" fill="white" stroke="rgba(0,30,60,0.45)" stroke-width="3" paint-order="stroke" text-anchor="middle">North Arm</text>
  <text x="611.0" y="788.5" font-family="Georgia, serif" font-size="12" font-style="italic" fill="white" stroke="rgba(0,30,60,0.45)" stroke-width="3" paint-order="stroke" text-anchor="middle">The Foot</text>
  <text x="342.1" y="646.1" font-family="Georgia, serif" font-size="12" font-style="italic" fill="white" stroke="rgba(0,30,60,0.45)" stroke-width="3" paint-order="stroke" text-anchor="middle">Wildwood Basin</text>
  <polygon points="311.0,561.4 315.0,566.4 311.0,571.4 307.0,566.4" fill="#8B5E3C" stroke="white" stroke-width="1"/>
  <polygon points="271.2,558.3 275.2,563.3 271.2,568.3 267.2,563.3" fill="#8B5E3C" stroke="white" stroke-width="1"/>
  <polygon points="558.9,636.0 562.9,641.0 558.9,646.0 554.9,641.0" fill="#8B5E3C" stroke="white" stroke-width="1"/>
  <polygon points="138.9,216.1 142.9,221.1 138.9,226.1 134.9,221.1" fill="#8B5E3C" stroke="white" stroke-width="1"/>
  <polygon points="138.7,210.8 142.7,215.8 138.7,220.8 134.7,215.8" fill="#8B5E3C" stroke="white" stroke-width="1"/>
  <line x1="138.9" y1="221.1" x2="305.2" y2="554.8" stroke="#C05000" stroke-width="2.5" stroke-dasharray="9,5" opacity="0.9"/>
  <polygon points="311.0,566.4 300.3,557.2 310.1,552.3" fill="#C05000" opacity="0.9"/>
  <circle cx="138.9" cy="221.1" r="4" fill="#C05000" stroke="white" stroke-width="1.5" opacity="0.9"/>
  <rect x="129.9" y="397.2" width="140" height="18" rx="3" fill="white" opacity="0.88"/>
  <text x="199.9" y="411.2" text-anchor="middle" font-family="Arial, sans-serif" font-size="9.5" font-weight="bold" fill="#C05000">334° NNW  ·  3.56 mi</text>
  <line x1="224.6" y1="560.7" x2="423.3" y2="708.2" stroke="#C05000" stroke-width="2.5" stroke-dasharray="9,5" opacity="0.9"/>
  <polygon points="433.7,715.9 420.0,712.6 426.5,703.7" fill="#C05000" opacity="0.9"/>
  <circle cx="224.6" cy="560.7" r="4" fill="#C05000" stroke="white" stroke-width="1.5" opacity="0.9"/>
  <rect x="242.5" y="651.8" width="140" height="18" rx="3" fill="white" opacity="0.88"/>
  <text x="312.5" y="665.8" text-anchor="middle" font-family="Arial, sans-serif" font-size="9.5" font-weight="bold" fill="#C05000">307° NW  ·  2.40 mi</text>
  <line x1="545.2" y1="691.4" x2="715.3" y2="771.6" stroke="#C05000" stroke-width="2.5" stroke-dasharray="9,5" opacity="0.9"/>
  <polygon points="727.1,777.1 713.0,776.5 717.7,766.6" fill="#C05000" opacity="0.9"/>
  <circle cx="545.2" cy="691.4" r="4" fill="#C05000" stroke="white" stroke-width="1.5" opacity="0.9"/>
  <rect x="554.2" y="750.6" width="140" height="18" rx="3" fill="white" opacity="0.88"/>
  <text x="624.2" y="764.6" text-anchor="middle" font-family="Arial, sans-serif" font-size="9.5" font-weight="bold" fill="#C05000">295° WNW  ·  1.85 mi</text>
  <circle cx="317.9" cy="479.4" r="5.5" fill="#d04f2c" stroke="white" stroke-width="1.5"/>
  <text x="326.9" y="483.4" font-family="Arial, sans-serif" font-size="9.5" font-weight="bold" fill="#1a3a5c" stroke="rgba(220,232,196,0.75)" stroke-width="2.5" paint-order="stroke">5152 Lake Grove Road</text>
  <circle cx="154.5" cy="308.1" r="5.5" fill="#d04f2c" stroke="white" stroke-width="1.5"/>
  <text x="163.5" y="312.1" font-family="Arial, sans-serif" font-size="9.5" font-weight="bold" fill="#1a3a5c" stroke="rgba(220,232,196,0.75)" stroke-width="2.5" paint-order="stroke">Bear Cove Marina</text>
  <circle cx="727.1" cy="777.1" r="5.5" fill="#d04f2c" stroke="white" stroke-width="1.5"/>
  <text x="736.1" y="772.1" font-family="Arial, sans-serif" font-size="9.5" font-weight="bold" fill="#1a3a5c" stroke="rgba(220,232,196,0.75)" stroke-width="2.5" paint-order="stroke">Walloon Village</text>
  <circle cx="553.5" cy="487.3" r="5.5" fill="#d04f2c" stroke="white" stroke-width="1.5"/>
  <text x="562.5" y="491.3" font-family="Arial, sans-serif" font-size="9.5" font-weight="bold" fill="#1a3a5c" stroke="rgba(220,232,196,0.75)" stroke-width="2.5" paint-order="stroke">Jones Landing (N. Arm)</text>
  <circle cx="531.3" cy="443.1" r="3" fill="#3d7a3d" stroke="white" stroke-width="1"/>
  <text x="537.3" y="446.1" font-family="Arial, sans-serif" font-size="9" fill="#3d7a3d" stroke="rgba(220,232,196,0.7)" stroke-width="2" paint-order="stroke">Schoof's Creek</text>
  <circle cx="543.5" cy="860.0" r="3" fill="#3d7a3d" stroke="white" stroke-width="1"/>
  <text x="549.5" y="863.0" font-family="Arial, sans-serif" font-size="9" fill="#3d7a3d" stroke="rgba(220,232,196,0.7)" stroke-width="2" paint-order="stroke">Fineout Creek</text>
  <circle cx="731.1" cy="794.7" r="3" fill="#3d7a3d" stroke="white" stroke-width="1"/>
  <text x="737.1" y="797.7" font-family="Arial, sans-serif" font-size="9" fill="#3d7a3d" stroke="rgba(220,232,196,0.7)" stroke-width="2" paint-order="stroke">Bear Creek</text>
  <text x="410" y="38" text-anchor="middle" font-family="Georgia, serif" font-size="22" font-weight="bold" fill="#1a3a5c">Walloon Lake</text>
  <text x="410" y="56" text-anchor="middle" font-family="Georgia, serif" font-size="11" fill="#1a3a5c" opacity="0.65">Emmet County, Michigan · WGS84</text>
  <polygon points="770,880 764,898 770,892 776,898" fill="#1a3a5c"/>
  <text x="770" y="874" text-anchor="middle" font-family="Arial" font-size="13" font-weight="bold" fill="#1a3a5c">N</text>
  <line x1="60" y1="938" x2="168" y2="938" stroke="#1a3a5c" stroke-width="3"/>
  <line x1="60" y1="933" x2="60" y2="943" stroke="#1a3a5c" stroke-width="2"/>
  <line x1="168" y1="933" x2="168" y2="943" stroke="#1a3a5c" stroke-width="2"/>
  <text x="114" y="930" text-anchor="middle" font-family="Arial" font-size="10" fill="#1a3a5c">1 mile</text>
  <circle cx="64" cy="870" r="4" fill="#d04f2c" stroke="white" stroke-width="1"/>
  <text x="72" y="874" font-family="Arial" font-size="9" fill="#1a3a5c">Preset location</text>
  <polygon points="64,884 68,889 64,894 60,889" fill="#8B5E3C" stroke="white" stroke-width="1"/>
  <text x="72" y="893" font-family="Arial" font-size="9" fill="#1a3a5c">Narrows</text>
  <line x1="60" y1="907" x2="74" y2="907" stroke="#C05000" stroke-width="2" stroke-dasharray="5,3"/>
  <polygon points="78,907 69,903 69,911" fill="#C05000"/>
  <text x="84" y="911" font-family="Arial" font-size="9" fill="#1a3a5c">Max fetch run</text>
</svg>